<svg width="41" height="40" viewBox="0 0 41 40" fill="none" xmlns="http://www.w3.org/2000/svg">
<g clip-path="url(#clip0_48_106)">
<path d="M24.9832 0L28.9795 6.66678L24.9832 13.3333H16.9905L12.9941 6.66678L16.9905 0" fill="#D7B600"/>
<path d="M18.35 11.0657L15.7129 6.66675L18.35 2.26758H23.6241L26.2611 6.66675L23.6241 11.0657H18.35Z" fill="#FFE900"/>
<path d="M4.90455 20.0001L0.908203 13.3333L4.90455 6.66675H12.8973L16.8934 13.3333L12.8973 20.0001H4.90455Z" fill="#B5007F"/>
<path d="M6.26388 17.7324L3.62695 13.3333L6.26388 8.93433H11.538L14.1749 13.3333L11.538 17.7324H6.26388Z" fill="#722291"/>
<path d="M16.9905 26.6666L12.9941 20L16.9905 13.3333H24.9832L28.9795 20L24.9832 26.6666H16.9905Z" fill="#293338"/>
<path d="M18.35 24.3989L15.7129 20L18.35 15.6008H23.6241L26.2611 20L23.6241 24.3989H18.35Z" fill="#404B53"/>
<path d="M4.90455 33.3333L0.908203 26.6666L4.90455 20H12.8973L16.8934 26.6666L12.8973 33.3333H4.90455Z" fill="#D70022"/>
<path d="M16.9905 40.0001L12.9941 33.3335L16.9905 26.6667H24.9832L28.9795 33.3335L24.9832 40.0001" fill="#0060DF"/>
<path d="M18.35 37.7324L15.7129 33.3335L18.35 28.9343H23.6241L26.2611 33.3335L23.6241 37.7324H18.35Z" fill="#45A1FF"/>
<path d="M28.9202 33.3333L24.9238 26.6666L28.9202 20H36.9129L40.909 26.6666L36.9129 33.3333H28.9202Z" fill="#008EA4"/>
<path d="M30.2795 31.0659L27.6426 26.6668L30.2795 22.2678H35.5536L38.1905 26.6668L35.5536 31.0659H30.2795Z" fill="#00C8D7"/>
<path d="M28.9202 20.0001L24.9238 13.3333L28.9202 6.66675H36.9129L40.909 13.3333L36.9129 20.0001H28.9202Z" fill="#006504"/>
<path d="M30.2795 17.7324L27.6426 13.3333L30.2795 8.93433H35.5536L38.1905 13.3333L35.5536 17.7324H30.2795Z" fill="#12BC00"/>
<path d="M24.9832 0L28.9795 6.66678L24.9832 13.3333H16.9905L12.9941 6.66678L16.9905 0" fill="#D7B600"/>
<path d="M18.35 11.0657L15.7129 6.66675L18.35 2.26758H23.6241L26.2611 6.66675L23.6241 11.0657H18.35Z" fill="#FFE900"/>
<path d="M4.90455 20.0001L0.908203 13.3333L4.90455 6.66675H12.8973L16.8934 13.3333L12.8973 20.0001H4.90455Z" fill="#B5007F"/>
<path d="M6.26388 17.7324L3.62695 13.3333L6.26388 8.93433H11.538L14.1749 13.3333L11.538 17.7324H6.26388Z" fill="#722291"/>
<path d="M16.9905 26.6666L12.9941 20L16.9905 13.3333H24.9832L28.9795 20L24.9832 26.6666H16.9905Z" fill="#293338"/>
<path d="M18.35 24.3989L15.7129 20L18.35 15.6008H23.6241L26.2611 20L23.6241 24.3989H18.35Z" fill="#404B53"/>
<path d="M4.90455 33.3333L0.908203 26.6666L4.90455 20H12.8973L16.8934 26.6666L12.8973 33.3333H4.90455Z" fill="#D70022"/>
<path d="M16.9905 40.0001L12.9941 33.3335L16.9905 26.6667H24.9832L28.9795 33.3335L24.9832 40.0001" fill="#0060DF"/>
<path d="M18.35 37.7324L15.7129 33.3335L18.35 28.9343H23.6241L26.2611 33.3335L23.6241 37.7324H18.35Z" fill="#45A1FF"/>
<path d="M28.9202 33.3333L24.9238 26.6666L28.9202 20H36.9129L40.909 26.6666L36.9129 33.3333H28.9202Z" fill="#008EA4"/>
<path d="M30.2795 31.0659L27.6426 26.6668L30.2795 22.2678H35.5536L38.1905 26.6668L35.5536 31.0659H30.2795Z" fill="#00C8D7"/>
<path d="M28.9202 20.0001L24.9238 13.3333L28.9202 6.66675H36.9129L40.909 13.3333L36.9129 20.0001H28.9202Z" fill="#006504"/>
<path d="M30.2795 17.7324L27.6426 13.3333L30.2795 8.93433H35.5536L38.1905 13.3333L35.5536 17.7324H30.2795Z" fill="#12BC00"/>
<path d="M6.25216 31.0662L3.61523 26.667L6.25216 22.2681H11.5262L14.1632 26.667L11.5262 31.0662H6.25216Z" fill="#FF0039"/>
</g>
<defs>
<clipPath id="clip0_48_106">
<rect width="40" height="40" fill="white" transform="translate(0.908203)"/>
</clipPath>
</defs>
</svg>
